<?xml version="1.0" encoding="utf-8"?>
<!-- Generator: Adobe Illustrator 18.0.0, SVG Export Plug-In . SVG Version: 6.00 Build 0)  -->
<!DOCTYPE svg PUBLIC "-//W3C//DTD SVG 1.1//EN" "http://www.w3.org/Graphics/SVG/1.1/DTD/svg11.dtd">
<svg version="1.1" id="Layer_1" xmlns="http://www.w3.org/2000/svg" xmlns:xlink="http://www.w3.org/1999/xlink" x="0px" y="0px"
	 viewBox="0 0 130.7 73.8" style="enable-background:new 0 0 130.7 73.8;" xml:space="preserve">
<style type="text/css">
	.st0, .st1{fill:#2BB29D;}
	.st2{fill:#ffffff;}
</style>
<g>
	<path class="st0" d="M3.5,66.3c0,0.5-0.2,0.9-0.6,1.2c-0.7,0.4-1.4,0.4-2.2,0C0.2,67.1,0,66.7,0,66.3c0.1-4.8,0.2-15.4,0.2-31.8
		c0-17.4,0-28.4-0.2-33C0,1,0.2,0.6,0.8,0.3c0.8-0.4,1.5-0.4,2.2,0C3.3,0.6,3.5,1,3.5,1.5V66.3z"/>
	<path class="st0" d="M37.6,37.8c0,0.8-0.5,1.2-1.5,1.2c-1.1,0-2.3,0.4-3.4,1.2c-1.3,0.9-1.9,1.9-1.9,3c0,2.3,0.4,5,1.3,8.3
		c0.9,3.2,1.3,6.1,1.3,8.5c0,3.9-1,7.1-2.9,9.6c-2.2,2.8-5.3,4.3-9.2,4.3h-7.5c-0.3,0-0.5-0.1-0.5-0.3v-1.2c0-0.3,0.1-0.4,0.4-0.4
		h4.6c3,0,5.3-1.4,6.8-4.3c1.2-2.4,1.9-5.5,1.9-9.5c0-2.4-0.3-5.1-0.9-8.2c-0.6-3.1-0.9-5.3-0.9-6.7c0-1.4,0.8-2.7,2.3-3.7
		c1.1-0.6,2.1-1.1,3.2-1.7c-3.7-0.8-5.5-2.5-5.5-5c0-1.4,0.3-3.4,0.9-6.1c0.6-2.7,0.9-5.2,0.9-7.6c0-3.9-0.7-7-2-9.5
		c-1.5-2.9-3.8-4.3-6.7-4.3h-4.6c-0.3,0-0.4-0.1-0.4-0.4V3.7c0-0.2,0.2-0.3,0.5-0.3h7.5c3.5,0,6.4,1.4,8.8,4.3
		c2.2,2.7,3.3,5.9,3.3,9.6c0,2.5-0.4,5.1-1.3,8c-0.9,2.8-1.3,5.4-1.3,7.7c0,1.1,0.6,2,1.9,2.7c1.1,0.6,2.2,0.9,3.4,0.9
		C37.1,36.6,37.6,37,37.6,37.8z"/>
	<path class="st1" d="M77.3,31.8c0,3.2-0.1,5.6-0.4,7.1c-0.3,2-1.1,4.2-2.3,6.8c-1.7,3.7-3.9,6.5-6.4,8.3c-2,1.4-4.3,2.1-7.1,2.1
		c-3.5,0-6.7-1.1-9.4-3.2c-2-1.5-3.7-3.8-5.1-6.8c-1.6-3.6-2.4-7.9-2.4-12.9c0-7.5,1.4-13.6,4.3-18.4c1.3-2.1,3.1-3.8,5.4-5.1
		C56.2,8.6,58.5,8,61.1,8c4.3,0,8.2,2,11.5,6.1C75.8,17.9,77.3,23.8,77.3,31.8z M70,35.2c0-5.3-0.6-9.7-1.7-13.3
		c-1.2-3.8-2.3-6.4-3.5-7.7c-1.5-1.6-3.7-2.4-6.7-2.5c-1.6,0-2.9,0.7-3.9,2.2c-1.1,1.7-1.9,3.8-2.3,6.4c-0.4,2.4-0.6,4.8-0.6,7.3
		c0,5.2,0.5,9.8,1.7,13.9c1.5,5.6,3.1,8.8,4.7,9.7c1.5,0.8,3.2,1.3,5,1.4c1.7,0.1,3.1-0.6,4.2-2.1c1-1.3,1.7-3.5,2.3-6.8
		C69.8,41,70,38.1,70,35.2z"/>
	<path class="st1" d="M116,31.8c0,3.2-0.1,5.6-0.4,7.1c-0.3,2-1.1,4.2-2.3,6.8c-1.7,3.7-3.9,6.5-6.4,8.3c-2,1.4-4.3,2.1-7.1,2.1
		c-3.5,0-6.7-1.1-9.4-3.2c-2-1.5-3.7-3.8-5.1-6.8c-1.6-3.6-2.4-7.9-2.4-12.9c0-7.5,1.4-13.6,4.3-18.4c1.3-2.1,3.1-3.8,5.4-5.1
		C94.9,8.6,97.2,8,99.8,8c4.3,0,8.2,2,11.5,6.1C114.4,17.9,116,23.8,116,31.8z M108.7,35.2c0-5.3-0.6-9.7-1.7-13.3
		c-1.2-3.8-2.3-6.4-3.5-7.7c-1.5-1.6-3.7-2.4-6.7-2.5c-1.6,0-2.9,0.7-3.9,2.2c-1.1,1.7-1.9,3.8-2.3,6.4c-0.4,2.4-0.6,4.8-0.6,7.3
		c0,5.2,0.5,9.8,1.7,13.9c1.5,5.6,3.1,8.8,4.7,9.7c1.5,0.8,3.2,1.3,5,1.4c1.7,0.1,3.1-0.6,4.2-2.1c1-1.3,1.7-3.5,2.3-6.8
		C108.4,41,108.7,38.1,108.7,35.2z"/>
	<path class="st2" d="M130.2,52.2c0,1.1-0.4,2-1.2,2.8c-0.8,0.8-1.8,1.2-3.1,1.2c-2.6,0-3.9-1.2-3.9-3.7c0-1.3,0.5-2.4,1.5-3.1
		c0.8-0.5,1.7-0.8,2.6-0.8C128.8,48.6,130.2,49.8,130.2,52.2z M130.7,21.2c0,3.6-0.5,8.2-1.4,13.9c-0.8,4.5-1.4,7.7-2,9.6
		c-0.2,0.8-0.7,1.1-1.3,0.9c-1.1-0.2-1.6-0.6-1.5-1.3c0-0.2,0-0.7,0.1-1.3c0.1-1.7,0.2-4,0.2-7.1c0-6.5-0.7-14.1-2.1-22.5
		c-0.4-2-0.5-3-0.5-3.2c0-0.6,0.3-0.9,0.9-0.9c0.5,0,1.4,0.3,2.9,0.9c1,0.4,2.1,0.8,3.4,1.4c0.7,0.3,1,0.7,1.1,1.2
		C130.7,14.1,130.7,16.9,130.7,21.2z"/>
</g>
</svg>
