<svg version="1.1" id="Layer_1" xmlns="http://www.w3.org/2000/svg" xmlns:xlink="http://www.w3.org/1999/xlink" x="0px" y="0px"
	 viewBox="0 0 251 71.5" style="enable-background:new 0 0 251 71.5;" xml:space="preserve">
<style type="text/css">
	.st0{fill:#29B29D;}
	.st1{fill:#ffffff;}
</style>
<g>
	<path class="st0" d="M2.7,66c0,0.4-0.2,0.8-0.6,1c-0.4,0.3-0.9,0.3-1.4,0C0.2,66.8,0,66.4,0,66c0.1-5.2,0.1-15.8,0.1-31.8
		c0-17.5,0-28.5-0.1-33c0-0.4,0.2-0.7,0.7-1c0.5-0.3,1-0.3,1.4,0c0.4,0.3,0.6,0.6,0.6,1V66z"/>
	<path class="st0" d="M33.2,35.4c0,0.8-0.5,1.2-1.4,1.2c-1,0-2.1,0.4-3.2,1.3c-1.2,0.9-1.8,2-1.8,3.1c0,2.3,0.4,5,1.2,8.2
		c0.8,3.2,1.2,6,1.2,8.5c0,3.9-0.9,7.1-2.6,9.6c-2,2.8-4.8,4.3-8.6,4.3h-6.8c-0.4,0-0.5-0.1-0.5-0.3v-1.2c0-0.3,0.2-0.4,0.5-0.4h4.6
		c2.9,0,5.1-1.4,6.6-4.3c1.3-2.4,1.9-5.6,1.9-9.5c0-2.3-0.3-5.1-0.8-8.1c-0.6-3.1-0.8-5.3-0.8-6.6c0-1.4,0.8-2.7,2.3-3.8
		c1-0.6,2.1-1.2,3.1-1.8c-3.6-0.9-5.3-2.6-5.3-5c0-1.4,0.3-3.4,0.8-6.1c0.5-2.7,0.8-5.2,0.8-7.6c0-3.8-0.7-6.9-2.1-9.5
		c-1.6-2.9-3.7-4.3-6.5-4.3h-4.6c-0.3,0-0.5-0.1-0.5-0.4V1.3c0-0.2,0.2-0.3,0.5-0.3H18c3.3,0,6,1.4,8.2,4.3c2,2.7,3,5.9,3,9.6
		c0,2.5-0.4,5.1-1.2,8c-0.8,2.8-1.2,5.4-1.2,7.7c0,1.1,0.6,2,1.8,2.7c1,0.6,2.1,0.9,3.2,0.9C32.7,34.2,33.2,34.6,33.2,35.4z"/>
	<path class="st0" d="M69.3,29.4c0,3.1-0.1,5.5-0.4,7.2c-0.3,1.9-1,4.1-2.1,6.7c-1.6,4-3.7,6.7-6.3,8.3c-1.5,0.9-2.5,1.5-3.1,1.7
		c-0.8,0.3-2,0.4-3.6,0.4c-2.3,0-4.1-0.3-5.4-0.8c-0.3-0.1-1.5-0.9-3.6-2.4c-1.6-1.1-3.2-3.4-4.7-6.8c-1.5-3.4-2.3-7.7-2.3-12.9
		c0-7.5,1.4-13.6,4.1-18.4c1.3-2.3,3-3.9,5.3-5c2.2-1.1,4.5-1.7,6.7-1.7c4,0,7.7,2,11,6.1C67.8,15.5,69.3,21.4,69.3,29.4z M65,33.2
		c0-5.8-0.6-10.6-1.9-14.2c-1.4-3.9-2.9-6.6-4.4-8.1c-1.8-1.8-4.4-2.7-7.7-2.7c-2.1,0-3.8,0.7-5,2.2c-1.4,1.7-2.3,3.9-2.8,6.8
		c-0.5,2.7-0.7,5.3-0.7,7.8c0,2,0.2,4.5,0.5,7.7c0.4,3.3,0.8,5.7,1.3,7.2c1.8,6,3.8,9.4,5.8,10.4c2,0.9,3.9,1.4,5.7,1.4
		c2.3,0,4.2-0.8,5.5-2.3C63.7,46.7,65,41.3,65,33.2z"/>
	<path class="st0" d="M106.1,29.4c0,3.1-0.1,5.5-0.4,7.2c-0.3,1.9-1,4.1-2.1,6.7c-1.6,4-3.7,6.7-6.3,8.3c-1.5,0.9-2.5,1.5-3.1,1.7
		c-0.8,0.3-2,0.4-3.6,0.4c-2.3,0-4.1-0.3-5.4-0.8c-0.3-0.1-1.5-0.9-3.6-2.4c-1.6-1.1-3.2-3.4-4.7-6.8c-1.5-3.4-2.3-7.7-2.3-12.9
		c0-7.5,1.4-13.6,4.1-18.4c1.3-2.3,3-3.9,5.3-5c2.2-1.1,4.5-1.7,6.7-1.7c4,0,7.7,2,11,6.1C104.6,15.5,106.1,21.4,106.1,29.4z
		 M101.8,33.2c0-5.8-0.6-10.6-1.9-14.2c-1.4-3.9-2.9-6.6-4.4-8.1c-1.8-1.8-4.4-2.7-7.7-2.7c-2.1,0-3.8,0.7-5,2.2
		c-1.4,1.7-2.3,3.9-2.8,6.8c-0.5,2.7-0.7,5.3-0.7,7.8c0,2,0.2,4.5,0.5,7.7c0.4,3.3,0.8,5.7,1.3,7.2c1.8,6,3.8,9.4,5.8,10.4
		c2,0.9,3.9,1.4,5.7,1.4c2.3,0,4.2-0.8,5.5-2.3C100.5,46.7,101.8,41.3,101.8,33.2z"/>
	<path class="st1" d="M120.5,66c0,0.4-0.2,0.8-0.6,1c-0.4,0.3-0.9,0.3-1.4,0c-0.5-0.3-0.7-0.6-0.7-1c0.1-5.2,0.1-15.8,0.1-31.8
		c0-17.5,0-28.5-0.1-33c0-0.4,0.2-0.7,0.7-1c0.5-0.3,1-0.3,1.4,0c0.4,0.3,0.6,0.6,0.6,1V66z"/>
	<path class="st1" d="M150.3,56.1c0,0.1-0.2,0.2-0.6,0.5c-0.2,0.1-0.5,0.1-0.9,0.1c-0.3-0.3-0.6-0.7-0.7-1.2
		c-0.8-2.1-3.7-10.9-8.9-26.3C133.9,13.6,131,4.9,130.5,3c-0.2-0.8-0.3-1.2-0.2-1.3c0-0.1,0.2-0.3,0.6-0.5c0.2-0.1,0.5-0.1,0.9-0.1
		c0.3,0.3,0.5,0.7,0.7,1.2c6.2,17.6,12,35.1,17.6,52.5C150.4,55.4,150.5,55.8,150.3,56.1z"/>
	<path class="st1" d="M162.3,66c0,0.4-0.2,0.8-0.6,1c-0.4,0.3-0.9,0.3-1.4,0c-0.5-0.3-0.7-0.6-0.7-1c0.1-5.2,0.1-15.8,0.1-31.8
		c0-17.5,0-28.5-0.1-33c0-0.4,0.2-0.7,0.7-1c0.5-0.3,1-0.3,1.4,0c0.4,0.3,0.6,0.6,0.6,1V66z"/>
	<path class="st1" d="M205.4,29.4c0,3.1-0.1,5.5-0.4,7.2c-0.3,1.9-1,4.1-2.1,6.7c-1.6,4-3.7,6.7-6.3,8.3c-1.5,0.9-2.5,1.5-3.1,1.7
		c-0.8,0.3-2,0.4-3.6,0.4c-2.3,0-4.1-0.3-5.4-0.8c-0.3-0.1-1.5-0.9-3.6-2.4c-1.6-1.1-3.2-3.4-4.7-6.8S174,36,174,30.8
		c0-7.5,1.4-13.6,4.1-18.4c1.3-2.3,3-3.9,5.3-5c2.2-1.1,4.5-1.7,6.7-1.7c4,0,7.7,2,11,6.1C203.9,15.5,205.4,21.4,205.4,29.4z
		 M201.1,33.2c0-5.8-0.6-10.6-1.9-14.2c-1.4-3.9-2.9-6.6-4.4-8.1c-1.8-1.8-4.4-2.7-7.7-2.7c-2.1,0-3.8,0.7-5,2.2
		c-1.4,1.7-2.3,3.9-2.8,6.8c-0.5,2.7-0.7,5.3-0.7,7.8c0,2,0.2,4.5,0.5,7.7c0.4,3.3,0.8,5.7,1.3,7.2c1.8,6,3.8,9.4,5.8,10.4
		s3.9,1.4,5.7,1.4c2.3,0,4.2-0.8,5.5-2.3C199.8,46.7,201.1,41.3,201.1,33.2z"/>
	<path class="st1" d="M251,5.9c-0.2,1.5-0.6,3.2-1.1,5.1c-0.1,0.3-0.2,0.5-0.4,0.5c-0.2,0-0.5-0.2-0.7-0.6c-0.5-1.1-1.5-1.7-2.8-2
		c-2.3-0.5-6.5-0.8-12.5-0.8c-0.4,0-0.6,0.2-0.6,0.5c0,0.3-0.1,5.8-0.2,16.4c-0.1,10.2-0.2,15.6-0.2,16.3c0,6.7,0.6,10,1.7,10h6
		c0.2,0,0.2,0.1,0.2,0.3v1.2c0,0.2-0.1,0.4-0.2,0.4h-19.3c-0.3,0-0.4-0.1-0.4-0.4v-1.2c0-0.2,0.1-0.4,0.4-0.4h5.7
		c0.4,0,0.7-0.3,0.7-0.9c-0.1-4.9-0.1-7.6-0.1-8.1c0-0.4,0.1-4.4,0.2-11.9s0.2-11.4,0.2-11.8c0-7.1-0.4-10.6-1.2-10.6
		c-6,0-10.3,0.3-12.8,1c-1.8,0.5-3,1.1-3.5,1.9c-0.3,0.4-0.5,0.6-0.7,0.6c-0.3,0-0.5-0.1-0.5-0.3c0-0.3,0.1-0.6,0.2-0.9
		c0.7-2.4,1.2-4.1,1.6-5.3c0.1-0.3,0.4-0.4,0.8-0.4c0.5,0.1,2.9,0.2,7.2,0.4c5.1,0.2,9.2,0.4,12.3,0.4c10,0,15.7,0,17.1-0.1
		c0.6,0,1.2-0.1,1.8-0.2c0.6-0.1,0.8-0.1,0.8-0.1C250.9,5.4,251,5.6,251,5.9z"/>
</g>
</svg>
