<?xml version="1.0" encoding="utf-8"?>
<!-- Generator: Adobe Illustrator 18.1.1, SVG Export Plug-In . SVG Version: 6.00 Build 0)  -->
<svg version="1.1" id="Layer_1" xmlns="http://www.w3.org/2000/svg" xmlns:xlink="http://www.w3.org/1999/xlink" x="0px" y="0px"
	 viewBox="0 0 213.5 34.1" enable-background="new 0 0 213.5 34.1" xml:space="preserve">
<path fill="none" stroke="#FFFFFF" d="M3.5,9l-2-1l-1-2V5l1-2l2-1h1l2,1l1,2v3l-1,15 M16.5,2l-10,21 M16.5,2l-2,21 M28.5,2l-2,1
	l-3,3l-3,4l-3,6l-3,7"/>
<path fill="none" stroke="#FFFFFF" d="M24.5,19.5l2-1l1-1l1-2v-2l-1-1h-1l-2,1l-1,2v3l1,2l2,1h2l2-1l1-1l2-3"/>
<path fill="none" stroke="#FFFFFF" d="M42.5,15.5l-1-2l-2-1h-2l-2,1l-1,1l-1,2v2l1,2l2,1h2l2-1l1-2l2-6l-1,5v3l1,1h1l2-1l1-1l2-3"/>
<path fill="none" stroke="#FFFFFF" d="M49.5,16.5l2-4l-1,5v3l1,1h1l3-1l2-2l1-3v-3 M58.5,12.5l1,4l1,1h2l2-1"/>
<path fill="none" stroke="#FFFFFF" d="M65.5,19.5l2-1l1-1l1-2v-2l-1-1h-1l-2,1l-1,2v3l1,2l2,1h2l2-1l1-1l2-3"/>
<path fill="none" stroke="#FFFFFF" d="M94.3,7.5l-2-1l-1-2v-1l1-2l2-1h1l2,1l1,2v2l-1,4l-1,3l-1,4v2l1,2l1,1h2l2-1l2-2l2-3l1-2l2-6
	 M110.3,0.5l-2,7l-3,10l-2,6l-2,5l-2,4l-2,1l-1-1v-2l1-3l2-3l3-3l3-2l5-3"/>
<path fill="none" stroke="#FFFFFF" d="M116.3,12.5h-2l-2,1l-1,1l-1,2v2l1,2l2,1h2l2-1l1-1l1-2v-2l-1-2L116.3,12.5l-1,1v2l1,2l2,1h3
	l2-1l1-1"/>
<path fill="none" stroke="#FFFFFF" d="M124.3,16.5l2-4l-2,6v2l1,1h2l2-1l2-2l2-3 M134.3,12.5l-2,6v2l1,1h1l2-1l1-1l2-3"/>
<path fill="none" stroke="#FFFFFF" d="M139.3,17l2-3l1-2v2h3l1,1v2l-1,3v1l1,1h1l2-1l1-1l2-3"/>
<path fill="none" stroke="#FFFFFF" d="M170.2,8.5l-2-1l-1-2v-1l1-2l2-1h1l2,1l1,2v3l-1,15 M183.2,1.5l-10,21 M183.2,1.5l-2,21
	 M195.2,1.5l-2,1l-3,3l-3,4l-3,6l-3,7"/>
<path fill="none" stroke="#FFFFFF" d="M191.2,19.5l2-1l1-1l1-2v-2l-1-1h-1l-2,1l-1,2v3l1,2l2,1h2l2-1l1-1l2-3"/>
<path fill="none" stroke="#FFFFFF" d="M199.2,18.5l2-3l3-5l1-2l1-3v-2l-1-1l-2,1l-1,2l-1,4l-1,7v6l1,1h1l2-1l2-2l1-3v-3l1,4l1,1h2
	l2-1"/>
</svg>
